<svg id="Layer_1" data-name="Layer 1" xmlns="http://www.w3.org/2000/svg" xmlns:xlink="http://www.w3.org/1999/xlink" viewBox="0 0 144 288"><defs><style>.cls-1{fill:#666be5;}.cls-2{fill:#2a2f85;}.cls-3{clip-path:url(#clip-path);}.cls-4{fill:url(#linear-gradient);}</style><clipPath id="clip-path"><path class="cls-1" d="M66,263.66c0-3.42-.07-6.83,0-10.24a7.28,7.28,0,0,0-4.89-7,20.55,20.55,0,0,1-7.62-4c-1.79-1.54-3.69-3-5.32-4.7a31.31,31.31,0,0,1-6.29-9.44c-.47-1.11-.87-2.25-1.39-3.33a5.89,5.89,0,0,0-4.19-3,8.9,8.9,0,0,0-2.36-.26c-6.79,0-13.58.08-20.37-.06-2.41-.05-6.53,3.07-6.67,5.18a16.11,16.11,0,0,0,.22,4.76,52.52,52.52,0,0,0,2.58,8.06c1.52,3.56,3.28,7,5.09,10.46,3.33,6.33,8.28,11.37,13.44,16.14a51.06,51.06,0,0,0,9.82,7.2c4.42,2.46,8.87,4.83,13.79,6.13,2.53.67,5,1.65,7.68,1.71,2.17.05,5.78-2.42,6.18-5.05a34.79,34.79,0,0,0,.27-4.68C66,268.86,66,266.26,66,263.66Z"/></clipPath><linearGradient id="linear-gradient" x1="54.59" y1="231.14" x2="25.02" y2="255.35" gradientUnits="userSpaceOnUse"><stop offset="0" stop-color="#949eff"/><stop offset="1" stop-color="#666be5"/></linearGradient></defs><path class="cls-2" d="M66,119.88c0-3.39-.08-6.78,0-10.17a7.31,7.31,0,0,0-4.93-7.12,20.47,20.47,0,0,1-7.52-4,70.15,70.15,0,0,1-5.55-4.92,31.64,31.64,0,0,1-6.17-9.33,19.07,19.07,0,0,0-1.58-3.53,7,7,0,0,0-2.66-2.34,9.92,9.92,0,0,0-3.94-.76c-6.76-.08-13.53,0-20.29,0A6.92,6.92,0,0,0,6.83,83C6.36,85,7,87,7.48,89.05a59,59,0,0,0,5.46,14.18c1.89,3.32,3.63,6.79,6.37,9.59,2.45,2.51,4.63,5.29,7.09,7.79a57.66,57.66,0,0,0,11.76,9.07,65.56,65.56,0,0,0,17.13,7.12,11.54,11.54,0,0,0,5.55.53,6.88,6.88,0,0,0,5.2-6.67C66,127.06,66,123.47,66,119.88Z"/><path class="cls-1" d="M66,263.66c0-3.42-.07-6.83,0-10.24a7.28,7.28,0,0,0-4.89-7,20.55,20.55,0,0,1-7.62-4c-1.79-1.54-3.69-3-5.32-4.7a31.31,31.31,0,0,1-6.29-9.44c-.47-1.11-.87-2.25-1.39-3.33a5.89,5.89,0,0,0-4.19-3,8.9,8.9,0,0,0-2.36-.26c-6.79,0-13.58.08-20.37-.06-2.41-.05-6.53,3.07-6.67,5.18a16.11,16.11,0,0,0,.22,4.76,52.52,52.52,0,0,0,2.58,8.06c1.52,3.56,3.28,7,5.09,10.46,3.33,6.33,8.28,11.37,13.44,16.14a51.06,51.06,0,0,0,9.82,7.2c4.42,2.46,8.87,4.83,13.79,6.13,2.53.67,5,1.65,7.68,1.71,2.17.05,5.78-2.42,6.18-5.05a34.79,34.79,0,0,0,.27-4.68C66,268.86,66,266.26,66,263.66Z"/><g class="cls-3"><path class="cls-4" d="M55.17,231.43,32,229.67l12.34,6.59s-8.84,9.51-8.88,9.2,13.89-3.23,13.89-3.23l1.24,12.2,7-20Z"/></g></svg>