<svg id="Layer_1" data-name="Layer 1" xmlns="http://www.w3.org/2000/svg" xmlns:xlink="http://www.w3.org/1999/xlink" viewBox="0 0 144 288"><defs><style>.cls-1{fill:#ffcf9d;}.cls-2{fill:#d66f00;}.cls-3{clip-path:url(#clip-path);}.cls-4{fill:url(#linear-gradient);}</style><clipPath id="clip-path"><path class="cls-1" d="M78.15,263.66c0-3.42.07-6.83,0-10.24a7.29,7.29,0,0,1,4.9-7,20.59,20.59,0,0,0,7.61-4c1.8-1.54,3.69-3,5.32-4.7a31.53,31.53,0,0,0,6.3-9.44c.47-1.11.87-2.25,1.38-3.33a5.91,5.91,0,0,1,4.2-3,8.78,8.78,0,0,1,2.35-.26c6.79,0,13.59.08,20.37-.06,2.41-.05,6.53,3.07,6.67,5.18a16.11,16.11,0,0,1-.21,4.76,53.68,53.68,0,0,1-2.59,8.06c-1.52,3.56-3.28,7-5.08,10.46-3.33,6.33-8.28,11.37-13.45,16.14a51.3,51.3,0,0,1-9.81,7.2c-4.43,2.46-8.87,4.83-13.79,6.13-2.54.67-5,1.65-7.69,1.71-2.17.05-5.78-2.42-6.18-5.05a34.78,34.78,0,0,1-.26-4.68C78.12,268.86,78.15,266.26,78.15,263.66Z"/></clipPath><linearGradient id="linear-gradient" x1="-16.78" y1="231.14" x2="-46.35" y2="255.35" gradientTransform="matrix(-1, 0, 0, 1, 72.72, 0)" gradientUnits="userSpaceOnUse"><stop offset="0" stop-color="#ffe7ce"/><stop offset="0.22" stop-color="#ffe6cd" stop-opacity="0.99"/><stop offset="0.35" stop-color="#ffe5c9" stop-opacity="0.96"/><stop offset="0.47" stop-color="#ffe1c3" stop-opacity="0.9"/><stop offset="0.57" stop-color="#ffddb9" stop-opacity="0.82"/><stop offset="0.66" stop-color="#ffd7ad" stop-opacity="0.71"/><stop offset="0.75" stop-color="#ffd09f" stop-opacity="0.58"/><stop offset="0.83" stop-color="#ffc78d" stop-opacity="0.43"/><stop offset="0.91" stop-color="#ffbd79" stop-opacity="0.25"/><stop offset="0.98" stop-color="#ffb263" stop-opacity="0.06"/><stop offset="1" stop-color="#ffaf5c" stop-opacity="0"/></linearGradient></defs><path class="cls-2" d="M78.06,119.88c0-3.39.07-6.78,0-10.17A7.32,7.32,0,0,1,83,102.59a20.39,20.39,0,0,0,7.52-4A68.41,68.41,0,0,0,96,93.68a31.64,31.64,0,0,0,6.17-9.33,19.1,19.1,0,0,1,1.59-3.53,7,7,0,0,1,2.65-2.34,10,10,0,0,1,3.94-.76c6.77-.08,13.53,0,20.29,0a6.94,6.94,0,0,1,6.6,5.3c.46,2-.12,4.06-.66,6.07a59.37,59.37,0,0,1-5.45,14.18c-1.9,3.32-3.64,6.79-6.38,9.59-2.45,2.51-4.63,5.29-7.08,7.79a57.72,57.72,0,0,1-11.77,9.07A65.56,65.56,0,0,1,88.8,136.8a11.5,11.5,0,0,1-5.54.53,6.89,6.89,0,0,1-5.21-6.67Q78.07,125.26,78.06,119.88Z"/><path class="cls-1" d="M78.15,263.66c0-3.42.07-6.83,0-10.24a7.29,7.29,0,0,1,4.9-7,20.59,20.59,0,0,0,7.61-4c1.8-1.54,3.69-3,5.32-4.7a31.53,31.53,0,0,0,6.3-9.44c.47-1.11.87-2.25,1.38-3.33a5.91,5.91,0,0,1,4.2-3,8.78,8.78,0,0,1,2.35-.26c6.79,0,13.59.08,20.37-.06,2.41-.05,6.53,3.07,6.67,5.18a16.11,16.11,0,0,1-.21,4.76,53.68,53.68,0,0,1-2.59,8.06c-1.52,3.56-3.28,7-5.08,10.46-3.33,6.33-8.28,11.37-13.45,16.14a51.3,51.3,0,0,1-9.81,7.2c-4.43,2.46-8.87,4.83-13.79,6.13-2.54.67-5,1.65-7.69,1.71-2.17.05-5.78-2.42-6.18-5.05a34.78,34.78,0,0,1-.26-4.68C78.12,268.86,78.15,266.26,78.15,263.66Z"/><g class="cls-3"><path class="cls-4" d="M88.92,231.43l23.2-1.76-12.33,6.59s8.83,9.51,8.88,9.2-13.9-3.23-13.9-3.23l-1.24,12.2-7-20Z"/></g></svg>