<svg id="Layer_1" data-name="Layer 1" xmlns="http://www.w3.org/2000/svg" xmlns:xlink="http://www.w3.org/1999/xlink" viewBox="0 0 144 288"><defs><style>.cls-1{fill:#f0cfff;}.cls-2{fill:#e5adff;}.cls-3{clip-path:url(#clip-path);}.cls-4{fill:url(#linear-gradient);}</style><clipPath id="clip-path"><path class="cls-1" d="M78.11,168.25c0,3.35.07,6.71,0,10.06a7.16,7.16,0,0,0,4.83,6.88,20.42,20.42,0,0,1,7.52,4c1.77,1.52,3.64,2.94,5.25,4.62a31,31,0,0,1,6.21,9.28c.47,1.09.86,2.21,1.37,3.27a5.81,5.81,0,0,0,4.14,3,9.1,9.1,0,0,0,2.33.25c6.7,0,13.41-.07,20.11.06,2.37.05,6.44-3,6.58-5.09a15.91,15.91,0,0,0-.21-4.68,50.81,50.81,0,0,0-2.56-7.92c-1.49-3.5-3.23-6.91-5-10.28-3.29-6.22-8.18-11.17-13.28-15.86a50.32,50.32,0,0,0-9.69-7.08c-4.36-2.41-8.75-4.75-13.61-6-2.5-.66-4.91-1.62-7.59-1.68-2.14,0-5.7,2.38-6.1,5a33.52,33.52,0,0,0-.26,4.6C78.08,163.13,78.11,165.69,78.11,168.25Z"/></clipPath><linearGradient id="linear-gradient" x1="23.79" y1="178.85" x2="58.3" y2="197.36" gradientTransform="matrix(-0.77, 0.1, 0.1, 0.74, 111.88, 48.65)" gradientUnits="userSpaceOnUse"><stop offset="0" stop-color="#fff" stop-opacity="0"/><stop offset="0.09" stop-color="#fff" stop-opacity="0.04"/><stop offset="0.24" stop-color="#fff" stop-opacity="0.16"/><stop offset="0.45" stop-color="#fff" stop-opacity="0.36"/><stop offset="0.69" stop-color="#fff" stop-opacity="0.63"/><stop offset="0.97" stop-color="#fff" stop-opacity="0.96"/><stop offset="1" stop-color="#fff"/></linearGradient></defs><path class="cls-2" d="M78.11,24.4c0,3.32.08,6.64,0,10a7.15,7.15,0,0,0,4.86,7,20.2,20.2,0,0,1,7.41,3.91,69.79,69.79,0,0,1,5.47,4.82,31,31,0,0,1,6.08,9.13,18.92,18.92,0,0,0,1.56,3.45,6.86,6.86,0,0,0,2.62,2.29,9.87,9.87,0,0,0,3.89.75c6.67.07,13.33,0,20,0a6.82,6.82,0,0,0,6.5-5.19c.46-2-.12-4-.65-5.94a58,58,0,0,0-5.37-13.88c-1.87-3.25-3.59-6.65-6.29-9.39-2.41-2.46-4.56-5.18-7-7.62a56.41,56.41,0,0,0-11.6-8.88,64.28,64.28,0,0,0-16.89-7,11.41,11.41,0,0,0-5.46-.52,6.74,6.74,0,0,0-5.13,6.53Z"/><path class="cls-1" d="M78.11,168.25c0,3.35.07,6.71,0,10.06a7.16,7.16,0,0,0,4.83,6.88,20.42,20.42,0,0,1,7.52,4c1.77,1.52,3.64,2.94,5.25,4.62a31,31,0,0,1,6.21,9.28c.47,1.09.86,2.21,1.37,3.27a5.81,5.81,0,0,0,4.14,3,9.1,9.1,0,0,0,2.33.25c6.7,0,13.41-.07,20.11.06,2.37.05,6.44-3,6.58-5.09a15.91,15.91,0,0,0-.21-4.68,50.81,50.81,0,0,0-2.56-7.92c-1.49-3.5-3.23-6.91-5-10.28-3.29-6.22-8.18-11.17-13.28-15.86a50.32,50.32,0,0,0-9.69-7.08c-4.36-2.41-8.75-4.75-13.61-6-2.5-.66-4.91-1.62-7.59-1.68-2.14,0-5.7,2.38-6.1,5a33.52,33.52,0,0,0-.26,4.6C78.08,163.13,78.11,165.69,78.11,168.25Z"/><g class="cls-3"><path class="cls-4" d="M88.74,199.92l22.91,1.73-12.18-6.47s8.73-9.35,8.77-9.05-13.72,3.17-13.72,3.17l-1.22-12L86.42,197Z"/></g></svg>