<svg xmlns="http://www.w3.org/2000/svg" viewBox="0 0 157.68 157.68"><defs><style>.cls-1{fill:#231f20;stroke:#231f20;stroke-miterlimit:10;}.cls-2{fill:#40246a;}.cls-3{fill:#d1afd3;}.cls-4{fill:#2f3284;}.cls-5{fill:#d67127;}</style></defs><g id="Layer_2" data-name="Layer 2"><g id="Layer_1-2" data-name="Layer 1"><circle class="cls-1" cx="78.84" cy="78.84" r="78.34"/><path class="cls-2" d="M72.32,12.47a14.75,14.75,0,0,0-5.53.72,73,73,0,0,0-19.15,7.9A64.34,64.34,0,0,0,34.48,31.16c-2.75,2.78-5.18,5.86-7.92,8.65-3.07,3.11-5,7-7.13,10.65a65.29,65.29,0,0,0-6.1,15.75A20.75,20.75,0,0,0,12.42,71H52a35.11,35.11,0,0,1,6.68-9.89,78.83,78.83,0,0,1,6.21-5.47,22.7,22.7,0,0,1,7.41-4.11Z"/><path class="cls-3" d="M144.35,66.21a65.7,65.7,0,0,0-6.1-15.75c-2.12-3.68-4.07-7.54-7.13-10.65-2.74-2.79-5.17-5.87-7.92-8.65A64.62,64.62,0,0,0,110,21.09a73.24,73.24,0,0,0-19.16-7.9,18.32,18.32,0,0,0-4.5-.78V51.86a22,22,0,0,1,6.38,3.74A75.4,75.4,0,0,1,99,61.07,34.94,34.94,0,0,1,105.66,71h39.6A21.3,21.3,0,0,0,144.35,66.21Z"/><path class="cls-4" d="M72.32,106.64a22.71,22.71,0,0,1-7.13-4.06A79.59,79.59,0,0,1,58.89,97a35.88,35.88,0,0,1-7-10.58c-.2-.45-.37-.92-.55-1.38H12.09c-.46,2.25.18,4.49.77,6.71a67.26,67.26,0,0,0,6.19,16.09c2.15,3.76,4.13,7.7,7.23,10.88,2.78,2.85,5.25,6,8,8.84a66.13,66.13,0,0,0,13.34,10.29,74.36,74.36,0,0,0,19.44,8.07,16.11,16.11,0,0,0,5.22.76Z"/><path class="cls-5" d="M145.59,85H106.32c-.17.46-.35.93-.54,1.38a35.71,35.71,0,0,1-7,10.58,76.19,76.19,0,0,1-6.3,5.59,22,22,0,0,1-6.1,3.67v40.44a20.93,20.93,0,0,0,4.2-.78A74.29,74.29,0,0,0,110,137.84a65.92,65.92,0,0,0,13.35-10.29c2.79-2.84,5.26-6,8-8.84,3.1-3.18,5.08-7.12,7.23-10.88a66.82,66.82,0,0,0,6.18-16.09C145.41,89.52,146,87.28,145.59,85Z"/></g></g></svg>